# xmcd
#
# Track frame offsets: 
#        150
#        13177
#        25227
#        46002
#        66402
#        81926
#        101389
#        118402
#        133437
#        145365
#        160385
#        181152
#
# Disc length: 2595 seconds
#
# Revision: 2
# Processed by: cddbd v1.5.2PL0 Copyright (c) Steve Scherf et al.
# Submitted via: ExactAudioCopy v1.0b1
#
DISCID=ac0a210c
DTITLE=Johnny Cash - American V: A Hundred Highways
DYEAR=2006
DGENRE=Country
TTITLE0=Help Me
TTITLE1=God's Gonna Cut You Down
TTITLE2=Like The 309
TTITLE3=If You Could Read My Mind
TTITLE4=Further On Up The Road
TTITLE5=On The Evening Train
TTITLE6=I Came To Believe
TTITLE7=Love's Been Good To Me
TTITLE8=A Legend In My Own Time
TTITLE9=Rose Of My Heart
TTITLE10=Four Strong Winds
TTITLE11=I'm Free From The Chain Gang Now
EXTD=
EXTT0=
EXTT1=
EXTT2=
EXTT3=
EXTT4=
EXTT5=
EXTT6=
EXTT7=
EXTT8=
EXTT9=
EXTT10=
EXTT11=
PLAYORDER=
